<svg viewBox="0 0 140 35" xmlns="http://www.w3.org/2000/svg">
    <g fill="currentColor">
        <g>
            <g>
                <path d="M18.335,19.887H6.682l-0.312-0.311V0.899L6.68,0.584h10.857l0.31,0.315v2.042l-0.312,0.306H9.033v13.973
							h9.305l0.311,0.314v2.044L18.335,19.887z" />
            </g>
            <g>
                <g>
                    <path d="M11.578,12.451c-0.617,0-1.175-0.135-1.659-0.397c-0.418-0.229-0.819-0.468-1.225-0.738
								c-0.292-0.202-0.584-0.386-0.892-0.56c-0.281-0.161-0.601-0.299-0.949-0.415l-0.017-0.005c-0.119-0.031-0.612-0.16-0.796-0.19
								c-0.15-0.023-0.598-0.055-0.598-0.055H5.31c-0.583,0-1.06,0.071-1.419,0.208c-0.363,0.142-0.649,0.295-0.848,0.461l-0.086,0.073
								c-0.154,0.128-0.227,0.188-0.382,0.36l-0.088,0.097l-0.752,0.012l-0.092-0.093c-0.121-0.125-0.214-0.23-0.308-0.337
								C1.21,10.726,1.09,10.586,0.876,10.39l-0.093-0.083L0.747,9.585l0.084-0.093c0.273-0.304,0.595-0.61,0.595-0.61
								c0.466-0.372,0.99-0.657,1.621-0.891c0.631-0.226,1.392-0.344,2.264-0.344h0.179c0.002,0,0.579,0.008,0.77,0.031
								c0.235,0.028,0.928,0.18,0.928,0.18C7.839,8.02,8.416,8.243,8.909,8.521c0.468,0.265,0.89,0.536,1.254,0.806
								c0.294,0.192,0.584,0.375,0.849,0.526c0.378,0.218,0.875,0.204,1.371-0.024c0.29-0.132,0.557-0.295,0.796-0.486
								c0.175-0.141,0.327-0.285,0.469-0.429l0.106-0.109l0.834,0.112l0.075,0.131c0.411,0.744,0.61,1.151,0.61,1.151l0.043,0.093
								l-0.118,0.597l-0.076,0.069c-0.41,0.365-0.909,0.702-1.48,1.002C13.019,12.285,12.325,12.451,11.578,12.451z" />
                </g>
            </g>
        </g>
        <g>
            <path d="M37.612,19.887l-2.167-0.031l-0.374-0.225L23.975,5.009v14.566l-0.312,0.311h-2.051l-0.311-0.311V0.816
						l0.311-0.313l2.168,0.031l0.375,0.223l11.096,14.626V0.816l0.31-0.313h2.052l0.31,0.313v18.759L37.612,19.887z" />
        </g>
        <g>
            <path d="M62.644,20.292c-2.751,0-4.909-1.491-5.916-4.085L56.646,16l1.76-1.387h0.576l0.078,0.184
						c0.76,1.801,1.967,2.715,3.583,2.715c1.829,0,3.208-1.463,3.208-3.4c0-1.736-1.826-2.666-3.763-3.653
						c-2.272-1.16-4.847-2.474-4.847-5.387c0-2.786,2.253-4.971,5.13-4.971c2.051,0,3.858,1.081,4.959,2.967l0.139,0.237l-1.833,1.321
						h-0.519l-0.09-0.12c-0.758-1.005-1.466-1.627-2.656-1.627c-1.217,0-2.137,0.942-2.137,2.192c0,1.162,1.454,1.881,3.137,2.715
						c2.426,1.203,5.447,2.699,5.447,6.324C68.821,17.518,66.05,20.292,62.644,20.292z" />
        </g>
        <g>
            <path d="M81.312,20.292c-5.641,0-10.229-4.53-10.229-10.096c0-5.567,4.587-10.096,10.229-10.096
						c5.64,0,10.226,4.529,10.226,10.096C91.54,15.761,86.952,20.292,81.312,20.292z M81.312,2.879c-4.006,0-7.263,3.284-7.263,7.316
						c0,4.033,3.257,7.315,7.263,7.315c3.987,0,7.231-3.282,7.231-7.315C88.544,6.163,85.3,2.879,81.312,2.879z" />
        </g>
        <g>
            <path d="M97.076,19.887h-2.05l-0.312-0.311V0.814l0.312-0.312h10.902l0.309,0.313v2.047l-0.309,0.312h-8.543v4.733
						h6.393l0.315,0.312v2.077l-0.315,0.311h-6.393v8.968L97.076,19.887z" />
        </g>
        <g>
            <path d="M116.901,19.887h-2.076l-0.312-0.311V3.175h-6.152l-0.311-0.31V0.814l0.311-0.312h15.007l0.31,0.313v2.047
						l-0.31,0.312h-6.153v16.401L116.901,19.887z" />
        </g>
        <g>
            <path d="M55.496,20.001H52.75l-0.251-0.252l-6.067-8.064h-2.255v7.946l-0.372,0.37H41.68l-0.374-0.37V0.84
						l0.374-0.372h5.061c3.844,0,6.425,2.248,6.425,5.594c0,2.243-1.261,4.081-3.404,5.002l6.23,8.434L55.496,20.001z M44.176,8.786
						h2.432c1.627,0,3.365-0.716,3.365-2.723c0-1.757-1.148-2.726-3.232-2.726h-2.563L44.176,8.786L44.176,8.786z" />
        </g>
    </g>
    <g fill="currentColor">
        <path d="M9.617,27.658H6.956V32H6.36v-4.903h3.852V32H9.617V27.658z" />
        <path d="M14.636,27.027c1.422,0,2.5,1.029,2.5,2.521c0,1.457-1.079,2.521-2.5,2.521s-2.5-1.029-2.5-2.521
					C12.135,28.127,13.179,27.027,14.636,27.027z M14.636,31.51c1.121,0,1.87-0.854,1.87-1.961c0-1.142-0.82-1.961-1.87-1.961
					c-1.064,0-1.87,0.82-1.87,1.961C12.766,30.662,13.585,31.51,14.636,31.51z" />
        <path d="M18.162,27.097h4.027v0.561h-1.716V32h-0.595v-4.342h-1.716V27.097z" />
        <path d="M23.832,32v-4.903c0.273,0,0.974-0.014,1.282-0.014c1.401,0,1.814,0.756,1.814,1.52
					c0,0.798-0.567,1.541-1.765,1.541c-0.196,0-0.49-0.007-0.735-0.028V32H23.832z M24.427,27.658v1.891
					c0.238,0.021,0.469,0.035,0.714,0.035c0.722,0,1.156-0.371,1.156-0.987c0-0.582-0.35-0.953-1.127-0.953
					C24.974,27.644,24.659,27.651,24.427,27.658z" />
        <path d="M28.851,27.097h2.767v0.561h-2.171v1.583h1.961v0.56h-1.961v1.639h2.241V32h-2.836V27.097z" />
        <path d="M33.716,27.097h2.773v0.561h-2.178v1.408c0.245-0.028,0.561-0.042,0.75-0.042c1.1,0,1.716,0.56,1.716,1.443
					c0,1.016-0.707,1.562-1.884,1.562c-0.498,0-0.89-0.028-1.177-0.028V27.097z M34.312,29.625v1.814
					c0.217,0.014,0.435,0.028,0.672,0.028c0.806,0,1.198-0.364,1.198-0.959c0-0.546-0.371-0.925-1.156-0.925
					C34.837,29.583,34.571,29.598,34.312,29.625z" />
        <path d="M41.859,27.658H40.08l-0.084,0.924C39.709,31.699,39.05,32.098,38.28,32l0.007-0.595
					c0.35,0.035,0.938-0.14,1.163-3.327l0.07-0.981h2.935V32h-0.595V27.658z" />
        <path d="M44.762,27.097h2.767v0.561h-2.171v1.583h1.961v0.56h-1.961v1.639h2.241V32h-2.836V27.097z" />
        <path d="M52.919,29.78h-2.697V32h-0.595v-4.903h0.595v2.123h2.697v-2.123h0.595V32h-0.595V29.78z" />
        <path d="M55.822,32v-4.903h0.595v3.922l2.977-3.922h0.525V32h-0.595v-3.922L56.348,32H55.822z" />
        <path d="M62.227,27.097h2.767v0.561h-2.171v1.583h1.961v0.56h-1.961v1.639h2.241V32h-2.836V27.097z" />
        <path d="M67.106,31.25c0.217,0,0.371,0.189,0.371,0.371c0,0.21-0.154,0.399-0.371,0.399
					c-0.245,0-0.399-0.189-0.399-0.399C66.707,31.439,66.861,31.25,67.106,31.25z" />
        <path d="M74.759,27.658h-2.662V32h-0.595v-4.903h3.852V32h-0.595V27.658z" />
        <path d="M80.681,27.658h-1.779l-0.084,0.924c-0.287,3.117-0.946,3.516-1.716,3.418l0.007-0.595
					c0.35,0.035,0.938-0.14,1.163-3.327l0.07-0.981h2.935V32h-0.595V27.658z" />
        <path d="M85.062,27.069h0.511L87.681,32h-0.637l-0.63-1.485h-2.234L83.556,32h-0.603L85.062,27.069z M84.417,29.955
					h1.765L85.3,27.861L84.417,29.955z" />
        <path d="M92.651,29.78h-2.697V32h-0.595v-4.903h0.595v2.123h2.697v-2.123h0.595V32h-0.595V29.78z" />
        <path d="M95.554,32v-4.903h0.595v3.922l2.977-3.922h0.525V32h-0.595v-3.922L96.079,32H95.554z" />
        <path d="M101.959,32v-4.903c0.273,0,0.974-0.014,1.282-0.014c1.401,0,1.814,0.756,1.814,1.52
					c0,0.798-0.567,1.541-1.765,1.541c-0.196,0-0.49-0.007-0.735-0.028V32H101.959z M102.554,27.658v1.891
					c0.238,0.021,0.469,0.035,0.714,0.035c0.722,0,1.156-0.371,1.156-0.987c0-0.582-0.35-0.953-1.127-0.953
					C103.101,27.644,102.786,27.651,102.554,27.658z" />
        <path d="M109.03,27.027c1.422,0,2.5,1.029,2.5,2.521c0,1.457-1.079,2.521-2.5,2.521s-2.5-1.029-2.5-2.521
					C106.529,28.127,107.573,27.027,109.03,27.027z M109.03,31.51c1.121,0,1.87-0.854,1.87-1.961c0-1.142-0.82-1.961-1.87-1.961
					c-1.064,0-1.87,0.82-1.87,1.961C107.16,30.662,107.979,31.51,109.03,31.51z" />
        <path d="M113.453,27.104c0.273-0.007,0.89-0.028,1.345-0.028c1.169,0,1.576,0.532,1.576,1.212
					c0,0.616-0.371,0.98-0.84,1.135v0.014c0.609,0.098,1.016,0.49,1.016,1.163c0,0.995-0.763,1.422-1.779,1.422
					c-0.435,0-1.03-0.014-1.317-0.028V27.104z M114.048,27.658v1.583h0.785c0.518,0,0.945-0.288,0.945-0.82
					c0-0.511-0.343-0.784-0.995-0.784C114.524,27.637,114.223,27.651,114.048,27.658z M114.048,29.766v1.667
					c0.161,0.014,0.477,0.028,0.756,0.028c0.722,0,1.149-0.294,1.149-0.896c0-0.519-0.406-0.799-1.114-0.799H114.048z" />
        <path d="M120.09,27.069h0.511L122.709,32h-0.637l-0.63-1.485h-2.234L118.584,32h-0.603L120.09,27.069z
					 M119.445,29.955h1.765l-0.883-2.094L119.445,29.955z" />
        <path d="M127.679,29.78h-2.697V32h-0.595v-4.903h0.595v2.123h2.697v-2.123h0.595V32h-0.595V29.78z" />
        <path d="M130.582,32v-4.903h0.595v3.922l2.977-3.922h0.525V32h-0.595v-3.922L131.107,32H130.582z" />
        <path d="M136.986,27.097h2.767v0.561h-2.171v1.583h1.961v0.56h-1.961v1.639h2.241V32h-2.836V27.097z" />
    </g>
</svg>